<svg xmlns="http://www.w3.org/2000/svg" width="186.24" height="60.444" viewBox="0 0 186.24 60.444">
  <g id="Grupo_162" data-name="Grupo 162" transform="translate(-154.897 -297.151)">
    <g id="Grupo_1" data-name="Grupo 1" transform="translate(292.447 297.151)">
      <path id="Trazado_1" data-name="Trazado 1" d="M718.408,343.267l12.751-21.3a1.385,1.385,0,0,0,0-1.422l-12.751-21.3a1.384,1.384,0,0,1,1.188-2.1H731.69a1.384,1.384,0,0,1,1.188.673l13.6,22.721a1.386,1.386,0,0,1,0,1.422l-13.6,22.721a1.384,1.384,0,0,1-1.188.673H719.6A1.384,1.384,0,0,1,718.408,343.267Z" transform="translate(-718.209 -297.151)" fill="#111211"/>
    </g>
    <g id="Grupo_2" data-name="Grupo 2" transform="translate(312.561 297.213)">
      <path id="Trazado_2" data-name="Trazado 2" d="M800.784,343.52l12.751-21.3a1.385,1.385,0,0,0,0-1.422l-12.751-21.3a1.384,1.384,0,0,1,1.188-2.1h12.093a1.384,1.384,0,0,1,1.188.673l13.6,22.721a1.385,1.385,0,0,1,0,1.422l-13.6,22.722a1.385,1.385,0,0,1-1.188.673H801.972A1.384,1.384,0,0,1,800.784,343.52Z" transform="translate(-800.585 -297.404)" fill="#f60"/>
    </g>
    <g id="Grupo_6" data-name="Grupo 6" transform="translate(291.27 297.18)">
      <rect id="Rectángulo_1" data-name="Rectángulo 1" width="29.752" height="48.21" transform="translate(0 0)" fill="none"/>
      <path id="Rectángulo_2" data-name="Rectángulo 2" d="M0,0H29.752V48.212H0V0Z" transform="translate(20.114 0.061)" fill="none"/>
    </g>
    <path id="Trazado_34_-_Contorno" data-name="Trazado 34 - Contorno" d="M195.252,345.72H162.9a1.384,1.384,0,0,1-1.362-1.635l8.355-45.453a1.384,1.384,0,0,1,1.362-1.134h9.6a1.384,1.384,0,0,1,1.362,1.635l-6.3,34.241a1.385,1.385,0,0,0,1.362,1.635h19.458a1.384,1.384,0,0,1,1.361,1.639l-1.487,7.942A1.384,1.384,0,0,1,195.252,345.72Z" transform="translate(-5.002 -0.262)" fill="#111211"/>
    <path id="Trazado_35_-_Contorno" data-name="Trazado 35 - Contorno" d="M362.069,345.72H326.761a1.384,1.384,0,0,1-1.362-1.635l8.355-45.453a1.384,1.384,0,0,1,1.362-1.134h34.1a1.384,1.384,0,0,1,1.362,1.634l-1.454,7.943a1.385,1.385,0,0,1-1.362,1.135h-22.2a1.384,1.384,0,0,0-1.361,1.132l-.926,5.005a1.384,1.384,0,0,0,1.361,1.636h19.335a1.384,1.384,0,0,1,1.362,1.634l-1.456,7.943a1.384,1.384,0,0,1-1.362,1.135H342.165a1.384,1.384,0,0,0-1.361,1.133l-1.021,5.545a1.384,1.384,0,0,0,1.361,1.635h22.413a1.384,1.384,0,0,1,1.361,1.639l-1.488,7.942A1.384,1.384,0,0,1,362.069,345.72Z" transform="translate(-128.852 -0.262)" fill="#111211"/>
    <path id="Trazado_36_-_Contorno" data-name="Trazado 36 - Contorno" d="M526.3,297.5h37.057a1.384,1.384,0,0,1,1.361,1.634l-1.456,7.943a1.384,1.384,0,0,1-1.362,1.135H550.468a1.385,1.385,0,0,0-1.361,1.133l-6.513,35.245a1.384,1.384,0,0,1-1.361,1.133h-9.6a1.385,1.385,0,0,1-1.361-1.636l6.326-34.239a1.384,1.384,0,0,0-1.361-1.636H524.85a1.384,1.384,0,0,1-1.362-1.634l1.454-7.943A1.384,1.384,0,0,1,526.3,297.5Z" transform="translate(-278.572 -0.262)" fill="#111211"/>
    <g id="Logística" transform="translate(154.897 349.491)" style="isolation: isolate">
      <g id="Grupo_158" data-name="Grupo 158" transform="translate(0 0)" style="isolation: isolate">
        <path id="Trazado_675" data-name="Trazado 675" d="M154.917,524.677a.085.085,0,0,1-.018-.077l.75-6.108a.146.146,0,0,1,.041-.077.1.1,0,0,1,.077-.031h1.03a.09.09,0,0,1,.072.031.087.087,0,0,1,.018.077l-.623,5.078c0,.03.012.045.036.045h2.864c.066,0,.1.036.1.108l-.108.876a.146.146,0,0,1-.041.077.1.1,0,0,1-.077.032h-4.048A.089.089,0,0,1,154.917,524.677Z" transform="translate(-154.897 -516.704)" fill="#111211"/>
        <path id="Trazado_676" data-name="Trazado 676" d="M176.145,524.055a1.86,1.86,0,0,1-.556-1.414,2.511,2.511,0,0,1,.027-.352l.235-1.933a2.623,2.623,0,0,1,.434-1.183,2.421,2.421,0,0,1,.908-.8,2.685,2.685,0,0,1,1.242-.285,2.1,2.1,0,0,1,1.5.524,1.824,1.824,0,0,1,.556,1.392,2.367,2.367,0,0,1-.027.352l-.235,1.933a2.661,2.661,0,0,1-.434,1.2,2.432,2.432,0,0,1-.912.809,2.68,2.68,0,0,1-1.247.289A2.079,2.079,0,0,1,176.145,524.055Zm2.449-.881a1.386,1.386,0,0,0,.4-.84l.244-1.988a1.479,1.479,0,0,0,.009-.189.985.985,0,0,0-.253-.714.922.922,0,0,0-.7-.262,1.131,1.131,0,0,0-.813.32,1.353,1.353,0,0,0-.4.845l-.244,1.988a1.448,1.448,0,0,0-.009.19.973.973,0,0,0,.253.705.911.911,0,0,0,.687.262A1.136,1.136,0,0,0,178.593,523.175Z" transform="translate(-170.536 -516.48)" fill="#111211"/>
        <path id="Trazado_677" data-name="Trazado 677" d="M198.447,524.042a1.8,1.8,0,0,1-.547-1.373,2.32,2.32,0,0,1,.018-.334l.253-2.024a2.61,2.61,0,0,1,.425-1.165,2.316,2.316,0,0,1,.894-.782,2.71,2.71,0,0,1,1.229-.276,2.375,2.375,0,0,1,1.075.23,1.7,1.7,0,0,1,.709.637,1.729,1.729,0,0,1,.249.921,2.48,2.48,0,0,1-.018.253l-.009.063a.145.145,0,0,1-.041.077.1.1,0,0,1-.077.032h-1.03a.089.089,0,0,1-.072-.032.085.085,0,0,1-.018-.077l.009-.027a.7.7,0,0,0,.009-.127.828.828,0,0,0-.244-.619.925.925,0,0,0-.678-.239,1.109,1.109,0,0,0-.791.3,1.274,1.274,0,0,0-.384.791l-.253,2.1a1.061,1.061,0,0,0-.009.163.893.893,0,0,0,.267.673.953.953,0,0,0,.691.258,1.144,1.144,0,0,0,.759-.249,1.021,1.021,0,0,0,.352-.691l.054-.407c0-.03-.012-.045-.036-.045h-.985a.089.089,0,0,1-.072-.032.085.085,0,0,1-.018-.077l.1-.831a.143.143,0,0,1,.041-.077.1.1,0,0,1,.077-.032h2.141a.089.089,0,0,1,.072.032.086.086,0,0,1,.018.077l-.145,1.192a2.462,2.462,0,0,1-.818,1.636,2.54,2.54,0,0,1-1.721.6A2.066,2.066,0,0,1,198.447,524.042Z" transform="translate(-187.399 -516.48)" fill="#111211"/>
        <path id="Trazado_678" data-name="Trazado 678" d="M219.445,519.475a.086.086,0,0,1-.018-.077l.75-6.107a.148.148,0,0,1,.041-.077.1.1,0,0,1,.077-.031h1.03a.091.091,0,0,1,.072.031.087.087,0,0,1,.018.077l-.75,6.107a.143.143,0,0,1-.041.077.1.1,0,0,1-.077.032h-1.03A.09.09,0,0,1,219.445,519.475Zm.868-6.907a.123.123,0,0,1,.027-.073l.578-.912a.134.134,0,0,1,.135-.081h.886c.054,0,.081.021.081.063a.155.155,0,0,1-.027.073l-.732.912a.163.163,0,0,1-.135.072h-.732C220.339,512.622,220.312,512.6,220.312,512.568Z" transform="translate(-203.668 -511.502)" fill="#111211"/>
        <path id="Trazado_679" data-name="Trazado 679" d="M229.322,524.114a1.446,1.446,0,0,1-.565-1.2,2.369,2.369,0,0,1,.018-.244l.027-.2a.147.147,0,0,1,.041-.077.105.105,0,0,1,.077-.031h1a.091.091,0,0,1,.072.031.086.086,0,0,1,.018.077l-.018.135a.652.652,0,0,0,.249.61,1.271,1.271,0,0,0,.845.249,1.128,1.128,0,0,0,.764-.226.7.7,0,0,0,.257-.551.462.462,0,0,0-.131-.334,1.185,1.185,0,0,0-.353-.24q-.221-.1-.7-.294a7.455,7.455,0,0,1-.885-.393,1.827,1.827,0,0,1-.605-.519,1.3,1.3,0,0,1-.244-.8q0-.063.018-.226a1.834,1.834,0,0,1,.75-1.305,2.908,2.908,0,0,1,2.7-.271,1.68,1.68,0,0,1,.732.6,1.578,1.578,0,0,1,.257.9c0,.048-.006.127-.018.235l-.018.136a.148.148,0,0,1-.041.077.1.1,0,0,1-.077.031h-1.012a.09.09,0,0,1-.072-.031.086.086,0,0,1-.018-.077l.009-.073a.746.746,0,0,0-.221-.646,1.088,1.088,0,0,0-.8-.266,1.121,1.121,0,0,0-.7.2.665.665,0,0,0-.262.556.471.471,0,0,0,.126.334,1.223,1.223,0,0,0,.375.253q.248.118.754.316.56.226.872.384a1.736,1.736,0,0,1,.565.475,1.233,1.233,0,0,1,.253.8c0,.042-.006.117-.018.226a1.9,1.9,0,0,1-.772,1.342,2.769,2.769,0,0,1-1.694.492A2.449,2.449,0,0,1,229.322,524.114Z" transform="translate(-210.722 -516.48)" fill="#111211"/>
        <path id="Trazado_680" data-name="Trazado 680" d="M256.073,518.417a.087.087,0,0,1,.018.077l-.108.886a.1.1,0,0,1-.036.077.122.122,0,0,1-.081.031H254.3c-.024,0-.042.015-.054.045l-.623,5.068a.146.146,0,0,1-.041.077.1.1,0,0,1-.077.032h-1.021a.089.089,0,0,1-.072-.032.085.085,0,0,1-.018-.077l.614-5.068c.012-.03,0-.045-.036-.045h-1.527a.091.091,0,0,1-.072-.031.086.086,0,0,1-.018-.077l.108-.886a.148.148,0,0,1,.041-.077.1.1,0,0,1,.077-.031H256A.09.09,0,0,1,256.073,518.417Z" transform="translate(-227.801 -516.704)" fill="#111211"/>
        <path id="Trazado_681" data-name="Trazado 681" d="M270.91,524.677a.086.086,0,0,1-.018-.077l.75-6.108a.148.148,0,0,1,.041-.077.1.1,0,0,1,.077-.031h1.03a.09.09,0,0,1,.072.031.087.087,0,0,1,.018.077l-.75,6.108a.145.145,0,0,1-.041.077.1.1,0,0,1-.077.032h-1.03A.09.09,0,0,1,270.91,524.677Z" transform="translate(-242.567 -516.704)" fill="#111211"/>
        <path id="Trazado_682" data-name="Trazado 682" d="M281.32,524.051a1.765,1.765,0,0,1-.542-1.355,2.329,2.329,0,0,1,.018-.334l.253-2.087a2.538,2.538,0,0,1,.425-1.147,2.3,2.3,0,0,1,.894-.768,2.745,2.745,0,0,1,1.229-.271,2.151,2.151,0,0,1,1.486.488,1.659,1.659,0,0,1,.547,1.3c0,.066-.006.166-.018.3a.118.118,0,0,1-.117.1l-1.03.063h-.018c-.06,0-.085-.033-.072-.1a1.02,1.02,0,0,0,.009-.154.882.882,0,0,0-.249-.66.919.919,0,0,0-.673-.244,1.128,1.128,0,0,0-.791.293,1.181,1.181,0,0,0-.375.764l-.271,2.178a.98.98,0,0,0-.009.153.879.879,0,0,0,.244.65.916.916,0,0,0,.678.244,1.122,1.122,0,0,0,.786-.289,1.21,1.21,0,0,0,.379-.759.108.108,0,0,1,.117-.1l1.021.045a.111.111,0,0,1,.072.022.065.065,0,0,1,.018.068,2.288,2.288,0,0,1-1.305,1.843,2.8,2.8,0,0,1-1.224.262A2.083,2.083,0,0,1,281.32,524.051Z" transform="translate(-250.04 -516.48)" fill="#111211"/>
        <path id="Trazado_683" data-name="Trazado 683" d="M304.417,524.619l-.154-.885a.044.044,0,0,0-.009-.023.03.03,0,0,0-.027-.013h-2.159c-.018,0-.033.012-.045.036l-.37.885a.113.113,0,0,1-.117.091h-1.12a.083.083,0,0,1-.077-.036.088.088,0,0,1,0-.09l2.647-6.108a.139.139,0,0,1,.126-.09h1.373a.108.108,0,0,1,.108.09l1.138,6.108v.027a.093.093,0,0,1-.1.1h-1.12A.1.1,0,0,1,304.417,524.619Zm-1.924-1.906h1.545c.03,0,.045-.018.045-.054l-.461-2.683c-.006-.024-.015-.034-.027-.031s-.021.013-.027.031l-1.1,2.683C302.459,522.694,302.468,522.712,302.493,522.712Z" transform="translate(-264.816 -516.704)" fill="#111211"/>
      </g>
    </g>
    <g id="Experiencia" transform="translate(215.453 351.099)" style="isolation: isolate">
      <g id="Grupo_159" data-name="Grupo 159" transform="translate(0)" style="isolation: isolate">
        <path id="Trazado_684" data-name="Trazado 684" d="M407.764,519.446a.106.106,0,0,1-.077.031h-2.882a.047.047,0,0,0-.045.046l-.172,1.4c0,.031.012.045.036.045h1.888a.091.091,0,0,1,.072.031.086.086,0,0,1,.018.077l-.108.877a.147.147,0,0,1-.041.077.106.106,0,0,1-.077.031h-1.888a.04.04,0,0,0-.045.045l-.181,1.464c0,.03.012.045.036.045h2.873c.066,0,.1.036.1.108l-.108.876a.146.146,0,0,1-.041.077.1.1,0,0,1-.077.032h-4.057a.089.089,0,0,1-.072-.032.085.085,0,0,1-.018-.077l.75-6.108a.146.146,0,0,1,.041-.077.1.1,0,0,1,.077-.031h4.048a.1.1,0,0,1,.077.031.081.081,0,0,1,.022.077l-.108.877A.148.148,0,0,1,407.764,519.446Z" transform="translate(-402.897 -518.313)" fill="#111211"/>
        <path id="Trazado_685" data-name="Trazado 685" d="M422.766,524.673a.08.08,0,0,1,.014-.09l2.069-3.009a.039.039,0,0,0,.009-.054l-1.328-3.009a.1.1,0,0,1-.009-.045c0-.054.033-.081.1-.081h1.12a.162.162,0,0,1,.073.018.081.081,0,0,1,.045.054l.885,2.069c.012.018.021.027.027.027s.015-.009.027-.027l1.391-2.069a.171.171,0,0,1,.145-.072h1.1c.06,0,.09.018.09.054a.152.152,0,0,1-.027.072l-2.069,3.009a.062.062,0,0,0-.009.054l1.328,3.009a.125.125,0,0,1,.009.054c0,.048-.033.073-.1.073h-1.1a.119.119,0,0,1-.126-.073l-.885-2.06q-.009-.055-.054,0l-1.4,2.06a.115.115,0,0,1-.059.054.191.191,0,0,1-.077.018h-1.111A.083.083,0,0,1,422.766,524.673Z" transform="translate(-417.908 -518.313)" fill="#111211"/>
        <path id="Trazado_686" data-name="Trazado 686" d="M450.827,518.8a1.6,1.6,0,0,1,.465,1.206c0,.06-.006.163-.018.307a2.212,2.212,0,0,1-.375,1,2.062,2.062,0,0,1-.781.673,2.347,2.347,0,0,1-1.066.24h-1.247c-.024,0-.042.015-.054.045l-.28,2.3a.144.144,0,0,1-.041.077.1.1,0,0,1-.077.032h-1.021c-.066,0-.1-.036-.1-.109l.759-6.116a.1.1,0,0,1,.036-.077.12.12,0,0,1,.081-.031h2.466A1.73,1.73,0,0,1,450.827,518.8Zm-1.061,2.123a.966.966,0,0,0,.289-.718.716.716,0,0,0-.217-.547.813.813,0,0,0-.578-.2h-1.111c-.024,0-.042.015-.054.045l-.2,1.662c-.012.03,0,.045.036.045h1.111A.991.991,0,0,0,449.766,520.918Z" transform="translate(-435.651 -518.285)" fill="#111211"/>
        <path id="Trazado_687" data-name="Trazado 687" d="M472.7,519.446a.1.1,0,0,1-.077.031H469.74a.047.047,0,0,0-.045.046l-.172,1.4c0,.031.012.045.036.045h1.888a.091.091,0,0,1,.072.031.087.087,0,0,1,.018.077l-.108.877a.146.146,0,0,1-.041.077.105.105,0,0,1-.077.031h-1.888a.04.04,0,0,0-.045.045l-.181,1.464c0,.03.012.045.036.045h2.873c.066,0,.1.036.1.108l-.108.876a.144.144,0,0,1-.041.077.1.1,0,0,1-.077.032h-4.057a.089.089,0,0,1-.072-.032.085.085,0,0,1-.018-.077l.75-6.108a.148.148,0,0,1,.041-.077.1.1,0,0,1,.077-.031h4.047a.1.1,0,0,1,.077.031.08.08,0,0,1,.022.077l-.108.877A.146.146,0,0,1,472.7,519.446Z" transform="translate(-451.976 -518.313)" fill="#111211"/>
        <path id="Trazado_688" data-name="Trazado 688" d="M492.055,524.628l-.786-2.5a.058.058,0,0,0-.054-.036H490.4a.04.04,0,0,0-.045.045l-.307,2.466a.145.145,0,0,1-.041.077.1.1,0,0,1-.077.032H488.9a.089.089,0,0,1-.072-.032.085.085,0,0,1-.018-.077l.75-6.108a.148.148,0,0,1,.041-.077.1.1,0,0,1,.077-.031h2.512a1.657,1.657,0,0,1,1.211.433,1.557,1.557,0,0,1,.443,1.166c0,.06-.006.163-.018.307a2.015,2.015,0,0,1-.425,1.053,1.888,1.888,0,0,1-.9.619c-.036.012-.048.033-.036.063l.876,2.557a.1.1,0,0,1,.009.045q0,.082-.1.082h-1.084A.106.106,0,0,1,492.055,524.628Zm-1.369-5.136a.044.044,0,0,0-.014.032l-.19,1.545c0,.031.012.045.036.045h1.147a.945.945,0,0,0,.678-.258.875.875,0,0,0,.271-.664.686.686,0,0,0-.2-.52.747.747,0,0,0-.538-.194h-1.156A.044.044,0,0,0,490.687,519.492Z" transform="translate(-467.831 -518.313)" fill="#111211"/>
        <path id="Trazado_689" data-name="Trazado 689" d="M510.845,524.677a.085.085,0,0,1-.018-.077l.75-6.108a.147.147,0,0,1,.041-.077.1.1,0,0,1,.077-.031h1.03a.09.09,0,0,1,.072.031.087.087,0,0,1,.018.077l-.75,6.108a.144.144,0,0,1-.041.077.1.1,0,0,1-.077.032h-1.03A.089.089,0,0,1,510.845,524.677Z" transform="translate(-484.471 -518.313)" fill="#111211"/>
        <path id="Trazado_690" data-name="Trazado 690" d="M525.127,519.446a.105.105,0,0,1-.077.031h-2.882a.047.047,0,0,0-.045.046l-.172,1.4c0,.031.012.045.036.045h1.888a.09.09,0,0,1,.072.031.086.086,0,0,1,.018.077l-.108.877a.146.146,0,0,1-.041.077.105.105,0,0,1-.077.031h-1.889a.04.04,0,0,0-.045.045l-.181,1.464c0,.03.012.045.036.045h2.873c.066,0,.1.036.1.108l-.108.876a.145.145,0,0,1-.041.077.1.1,0,0,1-.077.032h-4.056a.09.09,0,0,1-.073-.032.086.086,0,0,1-.018-.077l.75-6.108a.147.147,0,0,1,.041-.077.1.1,0,0,1,.077-.031h4.048a.1.1,0,0,1,.077.031.08.08,0,0,1,.023.077l-.108.877A.147.147,0,0,1,525.127,519.446Z" transform="translate(-491.602 -518.313)" fill="#111211"/>
        <path id="Trazado_691" data-name="Trazado 691" d="M545.554,518.417a.1.1,0,0,1,.077-.031h1.03a.09.09,0,0,1,.072.031.086.086,0,0,1,.018.077L546,524.6a.146.146,0,0,1-.04.077.1.1,0,0,1-.077.032h-.994a.105.105,0,0,1-.108-.073l-1.8-3.867c-.006-.018-.015-.025-.027-.022s-.021.017-.027.041l-.452,3.813a.145.145,0,0,1-.041.077.1.1,0,0,1-.077.032h-1.03a.089.089,0,0,1-.072-.032.085.085,0,0,1-.018-.077l.75-6.108a.147.147,0,0,1,.041-.077.1.1,0,0,1,.077-.031h.994a.122.122,0,0,1,.117.072l1.789,3.849c.006.018.015.026.027.022s.021-.017.027-.041l.452-3.795A.146.146,0,0,1,545.554,518.417Z" transform="translate(-507.457 -518.313)" fill="#111211"/>
        <path id="Trazado_692" data-name="Trazado 692" d="M566.135,524.051a1.765,1.765,0,0,1-.542-1.355,2.33,2.33,0,0,1,.018-.334l.253-2.087a2.539,2.539,0,0,1,.425-1.147,2.3,2.3,0,0,1,.894-.768,2.745,2.745,0,0,1,1.229-.271,2.151,2.151,0,0,1,1.486.488,1.658,1.658,0,0,1,.547,1.3c0,.066-.006.166-.018.3a.118.118,0,0,1-.117.1l-1.03.063h-.018c-.06,0-.084-.033-.072-.1a1.012,1.012,0,0,0,.009-.154.882.882,0,0,0-.249-.66.919.919,0,0,0-.673-.244,1.128,1.128,0,0,0-.791.293,1.181,1.181,0,0,0-.375.764l-.271,2.178a.976.976,0,0,0-.009.153.879.879,0,0,0,.244.65.916.916,0,0,0,.678.244,1.122,1.122,0,0,0,.786-.289,1.211,1.211,0,0,0,.379-.759.108.108,0,0,1,.117-.1l1.021.045a.111.111,0,0,1,.072.022.065.065,0,0,1,.018.068,2.288,2.288,0,0,1-1.305,1.843,2.8,2.8,0,0,1-1.224.262A2.083,2.083,0,0,1,566.135,524.051Z" transform="translate(-525.866 -518.088)" fill="#111211"/>
        <path id="Trazado_693" data-name="Trazado 693" d="M586.99,524.677a.085.085,0,0,1-.018-.077l.75-6.108a.147.147,0,0,1,.041-.077.1.1,0,0,1,.077-.031h1.03a.09.09,0,0,1,.072.031.086.086,0,0,1,.018.077l-.75,6.108a.145.145,0,0,1-.041.077.1.1,0,0,1-.077.032h-1.03A.089.089,0,0,1,586.99,524.677Z" transform="translate(-542.023 -518.313)" fill="#111211"/>
        <path id="Trazado_694" data-name="Trazado 694" d="M599.258,524.619l-.154-.885a.045.045,0,0,0-.009-.023.03.03,0,0,0-.027-.013h-2.16c-.018,0-.033.012-.045.036l-.37.885a.114.114,0,0,1-.118.091h-1.12a.083.083,0,0,1-.077-.036.088.088,0,0,1,0-.09l2.647-6.108a.139.139,0,0,1,.126-.09h1.373a.108.108,0,0,1,.108.09l1.138,6.108v.027a.093.093,0,0,1-.1.1h-1.121A.1.1,0,0,1,599.258,524.619Zm-1.924-1.906h1.545c.03,0,.045-.018.045-.054l-.46-2.683c-.006-.024-.015-.034-.027-.031s-.021.013-.027.031l-1.1,2.683C597.3,522.694,597.31,522.712,597.334,522.712Z" transform="translate(-548.219 -518.313)" fill="#111211"/>
      </g>
    </g>
    <g id="Tecnología" transform="translate(288.083 349.491)" style="isolation: isolate">
      <g id="Grupo_160" data-name="Grupo 160" transform="translate(0 0)" style="isolation: isolate">
        <path id="Trazado_695" data-name="Trazado 695" d="M705.058,518.417a.087.087,0,0,1,.018.077l-.109.886a.1.1,0,0,1-.036.077.122.122,0,0,1-.081.031h-1.563c-.024,0-.042.015-.054.045l-.623,5.068a.146.146,0,0,1-.041.077.1.1,0,0,1-.077.032h-1.021a.09.09,0,0,1-.072-.032.085.085,0,0,1-.018-.077l.614-5.068c.012-.03,0-.045-.036-.045h-1.527a.091.091,0,0,1-.072-.031.086.086,0,0,1-.018-.077l.108-.886a.148.148,0,0,1,.041-.077.1.1,0,0,1,.077-.031h4.418A.09.09,0,0,1,705.058,518.417Z" transform="translate(-700.34 -516.704)" fill="#111211"/>
        <path id="Trazado_696" data-name="Trazado 696" d="M724.743,519.446a.1.1,0,0,1-.077.031h-2.882a.047.047,0,0,0-.045.046l-.172,1.4c0,.031.012.045.036.045h1.888a.09.09,0,0,1,.072.031.086.086,0,0,1,.018.077l-.108.877a.148.148,0,0,1-.041.077.105.105,0,0,1-.077.031h-1.888a.04.04,0,0,0-.045.045l-.181,1.464c0,.03.012.045.036.045h2.873c.066,0,.1.036.1.108l-.108.876a.144.144,0,0,1-.041.077.1.1,0,0,1-.077.032h-4.057a.09.09,0,0,1-.073-.032.086.086,0,0,1-.018-.077l.75-6.108a.147.147,0,0,1,.041-.077.1.1,0,0,1,.077-.031h4.047a.1.1,0,0,1,.077.031.08.08,0,0,1,.022.077l-.108.877A.146.146,0,0,1,724.743,519.446Z" transform="translate(-715.105 -516.704)" fill="#111211"/>
        <path id="Trazado_697" data-name="Trazado 697" d="M741.849,524.051a1.765,1.765,0,0,1-.542-1.355,2.355,2.355,0,0,1,.018-.334l.253-2.087a2.538,2.538,0,0,1,.425-1.147,2.3,2.3,0,0,1,.894-.768,2.744,2.744,0,0,1,1.229-.271,2.151,2.151,0,0,1,1.486.488,1.658,1.658,0,0,1,.547,1.3c0,.066-.006.166-.018.3a.118.118,0,0,1-.117.1l-1.03.063h-.018c-.06,0-.084-.033-.072-.1a.98.98,0,0,0,.009-.154.883.883,0,0,0-.248-.66.919.919,0,0,0-.673-.244,1.127,1.127,0,0,0-.79.293,1.181,1.181,0,0,0-.375.764l-.271,2.178a.986.986,0,0,0-.009.153.879.879,0,0,0,.244.65.916.916,0,0,0,.678.244,1.122,1.122,0,0,0,.786-.289,1.21,1.21,0,0,0,.379-.759.108.108,0,0,1,.117-.1l1.021.045a.111.111,0,0,1,.072.022.065.065,0,0,1,.018.068,2.288,2.288,0,0,1-1.305,1.843,2.8,2.8,0,0,1-1.224.262A2.084,2.084,0,0,1,741.849,524.051Z" transform="translate(-731.304 -516.48)" fill="#111211"/>
        <path id="Trazado_698" data-name="Trazado 698" d="M767,518.417a.1.1,0,0,1,.077-.031h1.03a.09.09,0,0,1,.072.031.086.086,0,0,1,.018.077l-.75,6.108a.144.144,0,0,1-.04.077.1.1,0,0,1-.077.032h-.994a.106.106,0,0,1-.109-.073l-1.8-3.867c-.006-.018-.015-.025-.027-.022s-.021.017-.027.041l-.451,3.813a.147.147,0,0,1-.041.077.1.1,0,0,1-.077.032h-1.03a.089.089,0,0,1-.072-.032.085.085,0,0,1-.018-.077l.75-6.108a.148.148,0,0,1,.041-.077.1.1,0,0,1,.077-.031h.994a.123.123,0,0,1,.118.072l1.789,3.849c.006.018.015.026.027.022s.021-.017.027-.041l.452-3.795A.148.148,0,0,1,767,518.417Z" transform="translate(-747.46 -516.704)" fill="#111211"/>
        <path id="Trazado_699" data-name="Trazado 699" d="M787.594,524.055a1.86,1.86,0,0,1-.556-1.414,2.494,2.494,0,0,1,.027-.352l.235-1.933a2.624,2.624,0,0,1,.434-1.183,2.419,2.419,0,0,1,.908-.8,2.685,2.685,0,0,1,1.242-.285,2.1,2.1,0,0,1,1.5.524,1.823,1.823,0,0,1,.556,1.392,2.366,2.366,0,0,1-.027.352l-.235,1.933a2.665,2.665,0,0,1-.434,1.2,2.431,2.431,0,0,1-.912.809,2.679,2.679,0,0,1-1.247.289A2.079,2.079,0,0,1,787.594,524.055Zm2.449-.881a1.384,1.384,0,0,0,.4-.84l.244-1.988a1.424,1.424,0,0,0,.009-.189.983.983,0,0,0-.253-.714.921.921,0,0,0-.7-.262,1.131,1.131,0,0,0-.813.32,1.352,1.352,0,0,0-.4.845l-.244,1.988a1.392,1.392,0,0,0-.009.19.972.972,0,0,0,.253.705.91.91,0,0,0,.686.262A1.136,1.136,0,0,0,790.043,523.175Z" transform="translate(-765.869 -516.48)" fill="#111211"/>
        <path id="Trazado_700" data-name="Trazado 700" d="M808.917,524.677a.086.086,0,0,1-.018-.077l.75-6.108a.147.147,0,0,1,.04-.077.1.1,0,0,1,.077-.031h1.03a.091.091,0,0,1,.072.031.087.087,0,0,1,.018.077l-.624,5.078c0,.03.012.045.036.045h2.864c.066,0,.1.036.1.108l-.108.876a.143.143,0,0,1-.041.077.1.1,0,0,1-.077.032H808.99A.09.09,0,0,1,808.917,524.677Z" transform="translate(-782.389 -516.704)" fill="#111211"/>
        <path id="Trazado_701" data-name="Trazado 701" d="M830.144,524.055a1.86,1.86,0,0,1-.556-1.414,2.5,2.5,0,0,1,.027-.352l.235-1.933a2.628,2.628,0,0,1,.434-1.183,2.421,2.421,0,0,1,.908-.8,2.685,2.685,0,0,1,1.242-.285,2.1,2.1,0,0,1,1.5.524,1.823,1.823,0,0,1,.556,1.392,2.343,2.343,0,0,1-.027.352l-.235,1.933a2.661,2.661,0,0,1-.434,1.2,2.431,2.431,0,0,1-.912.809,2.68,2.68,0,0,1-1.247.289A2.08,2.08,0,0,1,830.144,524.055Zm2.449-.881a1.385,1.385,0,0,0,.4-.84l.244-1.988a1.422,1.422,0,0,0,.009-.189.984.984,0,0,0-.253-.714.922.922,0,0,0-.7-.262,1.131,1.131,0,0,0-.813.32,1.353,1.353,0,0,0-.4.845l-.244,1.988a1.457,1.457,0,0,0-.009.19.973.973,0,0,0,.253.705.912.912,0,0,0,.687.262A1.136,1.136,0,0,0,832.593,523.175Z" transform="translate(-798.029 -516.48)" fill="#111211"/>
        <path id="Trazado_702" data-name="Trazado 702" d="M852.447,524.042a1.8,1.8,0,0,1-.547-1.373,2.3,2.3,0,0,1,.018-.334l.253-2.024a2.612,2.612,0,0,1,.425-1.165,2.318,2.318,0,0,1,.894-.782,2.709,2.709,0,0,1,1.229-.276,2.376,2.376,0,0,1,1.075.23,1.7,1.7,0,0,1,.709.637,1.73,1.73,0,0,1,.249.921,2.457,2.457,0,0,1-.018.253l-.009.063a.144.144,0,0,1-.04.077.1.1,0,0,1-.077.032h-1.03a.09.09,0,0,1-.072-.032.085.085,0,0,1-.018-.077l.009-.027a.7.7,0,0,0,.009-.127.828.828,0,0,0-.244-.619.925.925,0,0,0-.677-.239,1.109,1.109,0,0,0-.791.3,1.275,1.275,0,0,0-.384.791l-.253,2.1a1.1,1.1,0,0,0-.009.163.893.893,0,0,0,.267.673.953.953,0,0,0,.691.258,1.143,1.143,0,0,0,.759-.249,1.02,1.02,0,0,0,.352-.691l.054-.407c0-.03-.012-.045-.036-.045h-.984a.088.088,0,0,1-.072-.032.085.085,0,0,1-.018-.077l.1-.831a.141.141,0,0,1,.04-.077.1.1,0,0,1,.077-.032h2.141a.09.09,0,0,1,.072.032.087.087,0,0,1,.018.077l-.145,1.192a2.462,2.462,0,0,1-.818,1.636,2.54,2.54,0,0,1-1.721.6A2.066,2.066,0,0,1,852.447,524.042Z" transform="translate(-814.892 -516.48)" fill="#111211"/>
        <path id="Trazado_703" data-name="Trazado 703" d="M873.445,519.475a.085.085,0,0,1-.018-.077l.75-6.107a.147.147,0,0,1,.04-.077.1.1,0,0,1,.077-.031h1.03a.091.091,0,0,1,.072.031.087.087,0,0,1,.018.077l-.75,6.107a.145.145,0,0,1-.041.077.1.1,0,0,1-.077.032h-1.03A.089.089,0,0,1,873.445,519.475Zm.867-6.907a.121.121,0,0,1,.027-.073l.578-.912a.134.134,0,0,1,.135-.081h.885c.054,0,.081.021.081.063a.155.155,0,0,1-.027.073l-.732.912a.163.163,0,0,1-.135.072h-.732C874.339,512.622,874.312,512.6,874.312,512.568Z" transform="translate(-831.161 -511.502)" fill="#111211"/>
        <path id="Trazado_704" data-name="Trazado 704" d="M885.713,524.619l-.154-.885a.047.047,0,0,0-.009-.023.03.03,0,0,0-.027-.013h-2.159c-.018,0-.033.012-.045.036l-.37.885a.114.114,0,0,1-.118.091h-1.12a.083.083,0,0,1-.077-.036.088.088,0,0,1,0-.09l2.647-6.108a.139.139,0,0,1,.126-.09h1.373a.108.108,0,0,1,.108.09l1.138,6.108v.027a.093.093,0,0,1-.1.1h-1.12A.1.1,0,0,1,885.713,524.619Zm-1.924-1.906h1.545c.03,0,.045-.018.045-.054l-.461-2.683c-.006-.024-.015-.034-.027-.031s-.021.013-.027.031l-1.1,2.683C883.755,522.694,883.765,522.712,883.789,522.712Z" transform="translate(-837.358 -516.704)" fill="#111211"/>
      </g>
    </g>
    <path id="Trazado_673" data-name="Trazado 673" d="M355.231,523.714a1.878,1.878,0,0,1-.158.767,2.071,2.071,0,0,1-.426.63,1.943,1.943,0,0,1-.627.426,1.9,1.9,0,0,1-.767.155,1.813,1.813,0,0,1-.749-.155,1.95,1.95,0,0,1-.613-.426,2.023,2.023,0,0,1-.415-.63,1.953,1.953,0,0,1-.152-.767,1.883,1.883,0,0,1,.152-.753,1.913,1.913,0,0,1,.415-.612,2.036,2.036,0,0,1,.613-.411,1.862,1.862,0,0,1,.749-.152,1.952,1.952,0,0,1,.767.152,2.03,2.03,0,0,1,.627.411,1.96,1.96,0,0,1,.426.612A1.816,1.816,0,0,1,355.231,523.714Z" transform="translate(-148.464 -169.783)" fill="#f60"/>
    <path id="Trazado_674" data-name="Trazado 674" d="M656.647,523.714a1.877,1.877,0,0,1-.158.767,2.071,2.071,0,0,1-.426.63,1.944,1.944,0,0,1-.627.426,1.9,1.9,0,0,1-.767.155,1.813,1.813,0,0,1-.749-.155,1.95,1.95,0,0,1-.613-.426,2.021,2.021,0,0,1-.415-.63,1.952,1.952,0,0,1-.152-.767,1.882,1.882,0,0,1,.152-.753,1.912,1.912,0,0,1,.415-.612,2.036,2.036,0,0,1,.613-.411,1.862,1.862,0,0,1,.749-.152,1.952,1.952,0,0,1,.767.152,2.032,2.032,0,0,1,.627.411,1.963,1.963,0,0,1,.426.612A1.816,1.816,0,0,1,656.647,523.714Z" transform="translate(-376.28 -169.783)" fill="#f60"/>
  </g>
</svg>
